<?xml version="1.0" encoding="UTF-8"?>
<svg id="Layer_2" data-name="Layer 2" xmlns="http://www.w3.org/2000/svg" xmlns:xlink="http://www.w3.org/1999/xlink" viewBox="0 0 177 177">
  <defs>
    <style>
      .cls-1 {
        fill: #1a85c4;
      }

      .cls-1, .cls-2 {
        stroke-width: 0px;
      }

      .cls-2 {
        fill: #e3f4f7;
        filter: url(#outer-glow-1);
      }
    </style>
    <filter id="outer-glow-1" filterUnits="userSpaceOnUse">
      <feOffset dx="0" dy="0"/>
      <feGaussianBlur result="blur" stdDeviation="5"/>
      <feFlood flood-color="#fff" flood-opacity=".68"/>
      <feComposite in2="blur" operator="in"/>
      <feComposite in="SourceGraphic"/>
    </filter>
  </defs>
  <g id="Layer_1-2" data-name="Layer 1">
    <g>
      <circle class="cls-2" cx="88.2" cy="88.28" r="73"/>
      <path class="cls-1" d="M161.41,81.56c-.17-1.68-.37-3.36-.63-5.04-.39-2.45-.92-4.86-1.55-7.26-1.14-4.33-2.71-8.5-4.61-12.55-.79-1.68-1.68-3.31-2.59-4.92-1.28-2.25-2.7-4.41-4.21-6.51-1.49-2.08-3.1-4.06-4.81-5.97s-3.52-3.72-5.4-5.45c-1.81-1.67-3.71-3.21-5.69-4.67-3.07-2.28-6.29-4.31-9.67-6.08-1.74-.9-3.51-1.74-5.31-2.51-2.69-1.15-5.44-2.13-8.25-2.94-2.23-.65-4.49-1.19-6.77-1.62-1.62-.3-3.24-.56-4.87-.74-.59-.07-1.19-.13-1.79-.18-1.06-.1-2.13-.22-3.19-.26-1.25-.04-2.51-.01-3.76-.01-1.8-.02-3.61-.08-5.4.12-.91.1-1.83.1-2.73.22-1.65.21-3.31.43-4.95.72-3.01.54-5.97,1.27-8.89,2.17-2.67.83-5.28,1.82-7.83,2.96-3.56,1.59-6.98,3.42-10.25,5.55-2.25,1.47-4.42,3.06-6.5,4.76-1.46,1.19-2.86,2.44-4.24,3.72-1.98,1.86-3.8,3.88-5.56,5.95-1.69,1.99-3.26,4.07-4.72,6.24-2.04,3.04-3.86,6.2-5.42,9.52-1.04,2.2-1.98,4.43-2.8,6.72-1.06,2.95-1.92,5.96-2.6,9.01-.46,2.09-.82,4.2-1.1,6.32-.2,1.58-.35,3.16-.46,4.75-.1,1.4-.12,2.81-.16,4.22-.02.75.03,1.51.08,2.26.08,1.23.03,2.45.17,3.68.15,1.29.2,2.6.37,3.89.22,1.65.48,3.3.8,4.94.55,2.73,1.24,5.44,2.1,8.1.62,1.93,1.33,3.84,2.1,5.73.98,2.36,2.09,4.67,3.31,6.92,1.54,2.82,3.26,5.53,5.15,8.13,1.59,2.18,3.28,4.27,5.1,6.25,1.17,1.26,2.38,2.49,3.63,3.68,1.26,1.21,2.57,2.37,3.91,3.5,1.67,1.41,3.44,2.72,5.24,3.96,2.52,1.74,5.14,3.3,7.85,4.72,2.39,1.25,4.84,2.34,7.36,3.31,2.92,1.12,5.9,2.06,8.95,2.8,2.03.49,4.07.9,6.13,1.23.83.13,1.65.24,2.48.33.7.08,1.4.14,2.1.2,1.1.09,2.19.21,3.28.25,1.41.06,2.82.04,4.23.05,1.78.02,3.55-.07,5.32-.22,1.6-.14,3.21-.34,4.81-.59,1.59-.24,3.19-.51,4.77-.86,3.21-.7,6.37-1.6,9.46-2.75,3.03-1.12,6-2.42,8.87-3.92,2.94-1.55,5.76-3.28,8.47-5.21,2.66-1.89,5.19-3.95,7.58-6.18,1.52-1.42,3.02-2.89,4.38-4.47,1.09-1.26,2.21-2.51,3.25-3.82,1.77-2.23,3.39-4.57,4.89-6.99,1.68-2.71,3.15-5.54,4.47-8.44,1.48-3.26,2.7-6.62,3.66-10.07,1.07-3.82,1.87-7.7,2.27-11.65.06-.62.12-1.25.17-1.87.09-.98.22-1.97.24-2.96.09-3.39.1-6.78-.24-10.17ZM146.75,90.87c-.06,1.48-.2,2.96-.38,4.44-.36,2.98-.96,5.92-1.76,8.81-.68,2.44-1.53,4.82-2.53,7.15-1.68,3.9-3.76,7.58-6.23,11.03-1.13,1.57-2.34,3.07-3.6,4.53-1.31,1.5-2.71,2.91-4.15,4.27-2.19,2.06-4.55,3.92-7.03,5.61-2.71,1.84-5.55,3.44-8.52,4.8-1.83.85-3.69,1.6-5.6,2.22-.14.05-.29.07-.53.14.07-.21.1-.32.16-.43.71-1.43,1.62-2.73,2.65-3.95,1.48-1.75,3.15-3.28,4.94-4.68,1.92-1.49,3.86-2.95,5.79-4.42,1.35-1.03,2.69-2.07,3.93-3.23,1.22-1.15,2.1-2.52,2.77-4.04,1.09-2.53,1.91-5.14,2.38-7.85.72-4.11,1.73-8.16,2.8-12.19.76-2.9,1.57-5.79,2.3-8.7.61-2.4,1.32-4.77,2.08-7.13.64-1.99,1.29-3.97,1.96-5.95.38-1.16.8-2.32,1.19-3.48.1-.29.26-.57.22-.95-.17-.08-.34-.19-.53-.24-.95-.24-1.92-.3-2.88-.18-.51.06-1.02.24-1.5.43-.92.38-1.75.93-2.51,1.57-1.72,1.47-3.02,3.24-3.79,5.38-1.12,3.1-2.13,6.22-3.07,9.37-.03.1-.05.2-.07.29.07.08.11.15.18.19.95.57,1.25,1.49,1.32,2.52.08,1.19-.08,2.35-.36,3.49-.75,3.02-1.95,5.84-3.53,8.5-.52.86-1.17,1.6-1.89,2.29-.98.94-1.97,1.87-2.94,2.82-1.09,1.07-2.02,2.25-2.78,3.58-.52.91-.95,1.86-1.22,2.87-.06.23-.12.46-.21.67-.17.38-.56.58-.89.5-.39-.1-.64-.44-.61-.88.01-.18.06-.36.11-.54.67-2.41,1.88-4.53,3.57-6.35,1.12-1.21,2.32-2.34,3.5-3.49.88-.86,1.72-1.74,2.33-2.83.91-1.62,1.66-3.31,2.26-5.06.43-1.24.84-2.48.99-3.78.07-.57.07-1.14.09-1.72,0-.05,0-.1-.01-.15-.18-.99-.63-1.33-1.58-1.07-1.41.38-2.66,1.07-3.76,2.02-1.18,1.03-2.19,2.23-3.12,3.5-.93,1.26-1.88,2.51-2.84,3.74-1.88,2.42-4.19,4.35-6.84,5.89-3.23,1.89-6.3,4.01-9.18,6.39-1.31,1.08-2.59,2.2-3.75,3.44-1.24,1.31-2.4,2.68-3.27,4.28-.51.93-.79,1.92-.93,2.97-.23,1.76-.32,3.53-.3,5.3.01,2.14.01,4.29.04,6.43.02,1.33.09,2.66.16,3.98.06,1.12.15,2.24.23,3.36.02.3-.08.44-.39.45-1.02.03-2.03.06-3.08-.03-.15-.43-.05-.84-.03-1.25,0-.2.06-.41.07-.61.07-1.75.11-3.5.21-5.24.15-2.43.11-4.86.12-7.28,0-1.73-.13-3.44-.32-5.15-.15-1.35-.67-2.57-1.4-3.71-1.09-1.7-2.46-3.17-3.91-4.57-2.74-2.64-5.77-4.89-8.95-6.96-1.28-.82-2.58-1.59-3.86-2.39-1.99-1.24-3.72-2.77-5.25-4.54-1.46-1.69-2.69-3.54-4.05-5.29-.93-1.19-1.93-2.33-3.17-3.23-.96-.69-2-1.23-3.16-1.51-.02,0-.05-.01-.07-.02-.86-.18-1.29.13-1.44.97-.14.74-.08,1.47.06,2.18.61,3.18,1.8,6.15,3.42,8.95.65,1.12,1.56,2.01,2.51,2.88,1.54,1.41,3.05,2.85,4.29,4.55,1.15,1.58,1.97,3.31,2.51,5.19.1.36.08.67-.19.94-.39.39-1.01.3-1.26-.18-.07-.14-.11-.3-.15-.45-.61-2.3-1.83-4.24-3.39-6.01-.93-1.07-2.01-1.97-3-2.97-.24-.24-.48-.48-.73-.71-1.01-.9-1.75-2-2.39-3.18-1.2-2.24-2.17-4.57-2.82-7.03-.27-1.04-.45-2.09-.52-3.16-.05-.7.06-1.4.31-2.07.22-.59.66-.99,1.2-1.35-.01-.12.01-.26-.03-.37-1.01-3.29-1.99-6.6-3.27-9.8-1.18-2.98-3.24-5.2-6.19-6.55-.65-.29-1.33-.45-2.05-.45-.7,0-1.4.03-2.1.2-.25.06-.49.14-.75.26.07.26.13.48.2.7.79,2.32,1.61,4.63,2.37,6.96.88,2.76,1.75,5.52,2.55,8.31.7,2.45,1.27,4.95,1.94,7.41.89,3.27,1.76,6.55,2.52,9.85.34,1.53.62,3.07.92,4.6.58,2.98,1.36,5.9,2.63,8.67.43.93.89,1.83,1.55,2.62.67.8,1.43,1.52,2.23,2.2,1.94,1.66,4.04,3.13,6.08,4.67,1.98,1.5,3.93,3.03,5.69,4.78,1.4,1.39,2.69,2.86,3.71,4.54.25.43.47.87.7,1.31.05.08.06.18.1.36-.21-.05-.36-.06-.49-.11-1.23-.45-2.46-.88-3.67-1.38-1.61-.66-3.2-1.39-4.75-2.21-3.4-1.81-6.61-3.9-9.6-6.33-1.03-.84-2.01-1.73-3.01-2.62-.56-.51-1.11-1.03-1.64-1.56-2.1-2.09-4.01-4.33-5.77-6.71-2.42-3.26-4.46-6.75-6.15-10.44-1.63-3.57-2.88-7.27-3.76-11.1-.42-1.8-.72-3.62-.98-5.46-.53-3.71-.55-7.44-.41-11.17.05-1.33.27-2.64.4-3.97.16-1.61.47-3.19.8-4.77.54-2.56,1.25-5.07,2.14-7.53.78-2.16,1.67-4.27,2.7-6.33,1.93-3.81,4.22-7.38,6.91-10.7,1.7-2.09,3.52-4.07,5.49-5.91,3.43-3.2,7.17-5.98,11.27-8.28,3.56-2,7.27-3.65,11.17-4.87,2.6-.81,5.23-1.46,7.91-1.9,1.8-.29,3.61-.49,5.43-.64,2.48-.21,4.96-.16,7.44-.08,1.42.05,2.85.22,4.28.4,2.51.31,4.99.79,7.44,1.44,3,.8,5.93,1.82,8.78,3.08,3.61,1.6,7.02,3.57,10.25,5.86,1.51,1.07,2.98,2.2,4.36,3.44.85.77,1.73,1.52,2.54,2.33,1.4,1.37,2.75,2.79,4,4.29,1.66,1.99,3.19,4.07,4.59,6.25,2.25,3.53,4.1,7.27,5.55,11.2.84,2.28,1.54,4.6,2.09,6.97.36,1.6.68,3.21.9,4.84.23,1.65.37,3.31.5,4.98.15,2.01.14,4.02.06,6.02Z"/>
      <path class="cls-1" d="M124.42,71.25c0-1.67-.2-3.32-.47-4.97-.5-2.93-1.36-5.74-2.54-8.45-1.65-3.77-3.93-7.12-6.74-10.11-2.01-2.15-4.27-3.98-6.75-5.57-2.43-1.55-5.02-2.78-7.74-3.73-1.87-.65-3.8-1.12-5.76-1.45-1.67-.27-3.36-.43-5.05-.48-1.12-.03-2.24,0-3.36.09-1.62.13-3.21.33-4.8.65-3.38.67-6.58,1.84-9.63,3.42-1.55.8-3.03,1.73-4.45,2.75-1.56,1.11-3,2.36-4.35,3.71-1.01,1.01-1.96,2.09-2.85,3.22-2.42,3.09-4.28,6.48-5.61,10.17-.92,2.56-1.52,5.2-1.84,7.9-.16,1.35-.27,2.7-.26,4.07.06,1.09.14,2.18.19,3.27.06,1.23.28,2.44.5,3.64.41,2.24,1.07,4.41,1.9,6.52.86,2.17,1.94,4.23,3.2,6.18,1.07,1.65,2.24,3.22,3.56,4.67,1.52,1.66,3.16,3.19,4.96,4.54,2.9,2.18,6.04,3.9,9.46,5.13,2.02.73,4.08,1.28,6.19,1.64,1.54.26,3.1.44,4.66.48,1.3.05,2.61.05,3.91-.08,1.27-.12,2.54-.26,3.8-.49,3.17-.57,6.22-1.55,9.13-2.93,2.06-.97,4.01-2.15,5.84-3.49,1.5-1.1,2.91-2.29,4.22-3.61,1.43-1.45,2.75-3,3.94-4.66,1.9-2.64,3.42-5.48,4.54-8.54.82-2.21,1.4-4.48,1.8-6.79.33-1.89.35-3.79.48-5.69.03-.33-.08-.67-.08-1.01ZM118.9,72.97c-.87.14-2.27-.45-2.61.13,0,0-.22.47-.03.62,0,0-.61-.48-.72-.82,0,0-.3,1.07-1.31-.08,0,0-.31-.26-.15.5,0,0-.24.03-.45-.08-.22-.12-.07.65-.28.16-.21-.48-.19-.38-.85-.6-.66-.22-.8-.25-.84.16-.03.4.44.29.12.65-.32.35-.59.09-.18,1.34,0,0,.15.37.43.38,0,0-.37.54-1.16-.04-.79-.57-1.39-1.39-1.39-1.39l-2.25-.77-1.01.07s-.61-1.17-1.08-.27c0,0-1.03-.32-1.5.33-.47.66-.55.94-.65,1.28-.1.33-.46.71-1.12.39-.65-.31-1.86.21-1.58.82,0,0-.59-.49-1.19-.42-.59.06-1.72.11-2.17.5-.45.39-.37,2.1-.37,2.1l-.72.11s.05.41-.43.46c-.47.05-.73-.09-.5.23.24.31.09.39-.4.43-.49.03.43.7-.34.71-.77.01.67,1.48-.32.71-1-.77-.36-.99-.36-.99,0,0,.05-.53.34-.71,0,0-.33-.68.46-.62l.32-.79v-.73s-.76-.08-.76.72c0,.8-1.18-.55-1.53-.11l.04.95-.33.36.04.47s-.6.63-.82.58c-.22-.05-.35.38-.35.38,0,0-.48-.5-.49-1.53,0,0-.36-.07.14-.97.51-.91-.24-.84-.34-.29-.09.55-.73.96-.45,1.51.28.56-.12,1.05-.41,1.25-.28.2-.82.8-.97,1.43s-.34.37-.42.94c-.08.56-1.43,4.08-2.06,4.62-.64.55-.6,1.3-.44,1.5.16.2-.69-.08-.83-.59,0,0-.74-.12-.63-.87.1-.75.89-1.88.46-2.31-.44-.43-.7.4-.7.4,0,0-.2.16-.32.06-.12-.09-.43-.13-.59.01-.15.14-.38.01-.41-.27-.03-.27.17-.14.08-.81,0,0,1.15-.75.05-1.83,0,0,1.48-.19.02-1.07l-.05-.28s.54-.31.11-.59c-.43-.27-.88-.95-1.17-.5-.29.45-.37-.47-.89-.55-.52-.08-.15.63-.94-.05-.78-.68,0-.28.3-.94.3-.66-.34.24-.36-.5-.02-.74-1.36-.37-1.36-.37l-.13-.19-.68.12-.41-.42-1.25.09s-.24-.68-.88-.15c-.64.53-.87.07-.87.07,0,0-.77-.32-.97-.05-.2.27-.5-.08-.5-.08,0,0-1.33-1.11-2.46-1.38-1.12-.28-9.99-2.21-9.99-2.21l-.08-.56s-.49-1.41-.9-1.62l-.43.06-.05-.3h-.37s-.08-.46-.08-.46l-.7.29s-.34-.62.29-.95c.63-.34.67.06,1.53-.57l.9-.23s.27-.03,1.33-1.2c1.07-1.17,1.68-1.64,2.63-1.47.95.16,2.74-.44,3.34-1.03.6-.59,1.04-1.43,1.56-1.49s1.62-.32,1.79-1.03c.17-.71.43-.91.85-1.17s.89-.76,1-.9c.11-.13.34-.42,1.03-.66.68-.25,1.02-1.28,1.25-1.55.23-.28.74-.73,1.22-.95.49-.23.9-.61,1.44-.72.55-.1,2.62-.82,3.61-.2,1,.61.07.87-.74.85,0,0-1.03-.11-1.02.25,0,.35.28.37.28.37,0,0-.74.69-1.06.84-.33.14-.57.75-.93.97-.36.23-1.11.88-.69,1.09,0,0-.53.49-.65.85,0,0-.38.34-.68,1.52l-.41.07s-.51,2.57-.17,3.02c.35.46.22-.42.67-.84.45-.42-.14-.54-.14-.54l.35-.39s0,.57.15.41c.15-.15,1.37-1.66,1.86-1.66.48.01-.27.75-.73.99-.45.23-.43,1.41-.12.89.32-.53.71-1.31,1.65-1.31.95,0,2.25.33,2.54.28,0,0-.4.57-.04.47.36-.11.37-.38.37-.38l.36.25.02.4s.29.06.4-.06.97.68.97.68l.07.67.58.46v.33s.63.37.63.37l.06.39s.19.32.81.17v.22s-.22.3.01.45c.23.14.2.56.2.56h.6s.1.15.4-.08c0,0,.35.25.58-.08l.32-.16.45.14s.13-.48.62-.53c0,0,.44-.37.76.05.33.43.15.68.79.66,0,0,.21.44.47.42.27-.01.44-.58.42-.72l.63-.07.16.51.55-.05v.39s.44.49.41-.32l.4-.42.03-.46.47-.13.49-.73s1.34-.32,2.01-1.39c0,0,.89-.9.95-.4.08,0,1.12-.01,1.7-.52l.58-.08s.03-.33.74-.05c0,0,3.3.1,4.31-1.01,0,0,.54-.55.95-.55,0,0,.23.05.35-.28,0,0,.48-.13.75.18.26.31,1.78-.86,1.27.01s-.82,1.01-.5,1.79c.31.79-.15,1.65.17,1.85.31.2,1.59-.16,1.96.09.36.26.64.13,1.12-.18.48-.32,1-.63,1.24.05.25.68.34.79,1,.06.66-.74.28-.86,1.05-1.04.76-.18.66.24,1.17-.41.52-.64,1.14.07.77.49-.37.43-.21.76.18,1.12.4.36.99,1.72.73,1.74,0,0-.01,1.26-.9-.07,0,0,.15,1.21-1.05.56,0,0,.68,1.14,1.1.77.42-.37.94.13,1.32.22.39.1.39.3-.04.44-.43.14,1.23,1.08,1.23,1.08l.51.04s.7.68-.17.82Z"/>
    </g>
  </g>
</svg>